<svg version="1.2" xmlns="http://www.w3.org/2000/svg" viewBox="0 0 53 85" width="53" height="85">
	<title>&lt;Path&gt;</title>
	<style>
		.s0 { fill: #ffffff }
	</style>
	<path id="&lt;Path&gt;" class="s0" d="m34.39 19c-2.85-1.39-4.7-4.07-5.71-7q-0.63-1.83-0.9-3.75c-0.08-0.57-0.12-4.42-0.15-4.99-0.03-0.47 0.01-1.03-0.16-1.48-0.31-0.85-2.1-1.35-2.94-1.11-0.65 0.19-0.66 1.03-0.62 1.58 0.06 0.83 0.06 4.93 0.06 5.77q-0.01 2.54-0.02 5.07-0.01 3.31-0.02 6.63-0.01 3.82-0.02 7.64-0.02 4.04-0.03 8.09-0.02 4-0.03 8-0.01 3.68-0.02 7.36-0.01 3.07-0.03 6.15 0 2.2-0.01 4.4 0 1.05-0.01 2.1c0 0.01 0 0.09 0 0.1-3.59-1.79-9.07-1.46-14.24 1.22-7.17 3.73-11 10.59-8.54 15.31 2.45 4.72 8.66 5.76 15.84 2.02 5.99-3.11 9.92-8.41 9.89-12.81v-43.07c8.76-0.26 16.88 10.34 16.88 10.34 8.18 14.39-5.08 28.74-5.08 28.74-0.88 2.72 0.92 2.14 0.92 2.14 4.68-2.82 10.13-11.74 10.13-11.74 12.54-20.95-15.19-36.71-15.19-36.71z"/>
	<path id="&lt;Path&gt;" fill-rule="evenodd" class="s0" d="m33 85.12c-1.73 0-3.12-1.39-3.12-3.12 0-1.73 1.39-3.12 3.12-3.12 1.73 0 3.12 1.39 3.12 3.12 0 1.73-1.39 3.12-3.12 3.12z"/>
</svg>