<!-- Uploaded to: SVG Repo, www.svgrepo.com, Generator: SVG Repo Mixer Tools -->
<svg width="800px" height="800px" viewBox="1.75 1.75 20.5 20.5" fill="none" xmlns="http://www.w3.org/2000/svg">
    <!-- The rectangle, now with its position and size adjusted for the stroke -->
    <rect x="2.5" y="2.5" width="19" height="19" rx="4" ry="4" fill="#007BFF" stroke="#ffffff" stroke-width="1.5"
          fill-opacity="0.6"/>

    <!-- The pencil, wrapped in a group to scale it from its center -->
    <g transform="translate(12, 12) scale(0.75) translate(-12, -12)">
        <path d="M10.95 17.51C10.66 17.8 10.11 18.08 9.71 18.14L7.25 18.49C7.16 18.5 7.07 18.51 6.98 18.51C6.57 18.51 6.19 18.37 5.92 18.1C5.59 17.77 5.45 17.29 5.53 16.76L5.88 14.3C5.94 13.89 6.21 13.35 6.51 13.06L10.97 8.6C11.05 8.81 11.13 9.02 11.24 9.26C11.34 9.47 11.45 9.69 11.57 9.89C11.67 10.06 11.78 10.22 11.87 10.34C11.98 10.51 12.11 10.67 12.19 10.76C12.24 10.83 12.28 10.88 12.3 10.9C12.55 11.2 12.84 11.48 13.09 11.69C13.16 11.76 13.2 11.8 13.22 11.81C13.37 11.93 13.52 12.05 13.65 12.14C13.81 12.26 13.97 12.37 14.14 12.46C14.34 12.58 14.56 12.69 14.78 12.8C15.01 12.9 15.22 12.99 15.43 13.06L10.95 17.51ZM17.37 11.09L16.45 12.02C16.39 12.08 16.31 12.11 16.23 12.11C16.2 12.11 16.16 12.11 16.14 12.1C14.11 11.52 12.49 9.9 11.91 7.87C11.88 7.76 11.91 7.64 11.99 7.57L12.92 6.64C14.44 5.12 15.89 5.15 17.38 6.64C18.14 7.4 18.51 8.13 18.51 8.89C18.5 9.61 18.13 10.33 17.37 11.09Z" fill="#ffffff"/>
    </g>
</svg>