<svg version="1.2" xmlns="http://www.w3.org/2000/svg" viewBox="0 0 53 85" width="53" height="85">
	<title>&lt;Compound Path&gt;</title>
	<style>
		.s0 { fill: #ffffff }
	</style>
	<path id="&lt;Path&gt;" fill-rule="evenodd" class="s0" d="m47 85.12c-1.73 0-3.12-1.39-3.12-3.12 0-1.73 1.39-3.12 3.12-3.12 1.73 0 3.12 1.39 3.12 3.12 0 1.73-1.39 3.12-3.12 3.12z"/>
	<path id="&lt;Compound Path&gt;" fill-rule="evenodd" class="s0" d="m40.48 0.94l-0.53 67.85-0.03 0.03c0.14 4.8-2.67 9.97-8.52 13.01-2.94 1.53-6.09 2.34-9.03 2.34q-0.78 0-1.55-0.08c-3.67-0.38-6.46-2.06-7.85-4.75-2.77-5.33 0.98-12.59 8.54-16.52 4.97-2.59 10.49-3.05 14.42-1.23q0.4 0.19 0.91 0.53l0.02-61.19c0-0.29 0.24-0.52 0.53-0.52h2.56c0.29 0 0.53 0.24 0.53 0.53zm-3.8 67.88c-0.63-2.55-2.38-3.41-2.46-3.45l-0.03-0.01c-1.04-0.49-2.29-0.73-3.65-0.73-2.23 0-4.75 0.64-7.11 1.87-5.32 2.76-8.43 7.77-6.79 10.93 0.99 1.9 3.31 2.41 4.61 2.54 2.55 0.26 5.48-0.38 8.23-1.82 4.38-2.27 7.38-6.17 7.2-9.33z"/>
</svg>