<svg version="1.2" xmlns="http://www.w3.org/2000/svg" viewBox="0 0 512 512" width="512" height="512">
	<title>violin</title>
	<style>
		.s0 { fill: #ccc; }
	</style>
	<path class="s0" d="m476.03 56.26l4.31-6.48 4.99 4.99 10.67-15.38-5.28-5.28 5.26-7.93-10.16-10.16-7.93 5.25-5.27-5.27-15.41 10.65 5.01 5.01-6.49 4.28-1.79 10.13-4.29 2.84-10.71-10.72 4.49-4.49-14.61-6.72-7.58 7.59 6.7 14.61 4.5-4.49 9.4 9.41-14.75 9.8-17.59-17.58-6.51 6.5 20.06 20.08-94.35 87.6c-16.22-15.19-40.59-34.42-66.08-34.42-20.86 0-38.35 12.46-51.96 37.01-2.4 4.31-4.02 9.35-5.57 14.22-4.61 14.39-8.59 23.57-22.92 24.84l-119.12-119.12-39.17 16.17 11.5 11.5 6.94 6.95 9.22 9.22v-0.01l117.88 117.89q-0.68 1.32-1.52 2.56-0.83 1.23-1.8 2.36-0.98 1.13-2.07 2.13-1.1 1.01-2.3 1.89c-10.87 8.14-20 12.28-27.15 12.28-3.84 0-9.5-1.08-14.05-10.39-2.13-4.33-6.59-8.96-12.71-8.96-13.28 0-16.12 19.74-17.04 26.2-0.53 3.61-3.78 12.16-22.46 13.41-22.72 1.53-40.21 14.32-48.01 35.07-10.53 28.09-4.13 75.79 45.5 125.4 31.76 31.77 66.85 49.25 98.82 49.27h0.02c33.85 0 58.61-20.71 61.57-51.53 1.89-19.54 10.77-22.31 13.44-22.7 10.39-1.49 24.4-4.68 26.08-15.24 0.9-5.73-2.55-11.44-8.84-14.52-5.66-2.78-8.92-6.21-9.97-10.52-1.79-7.36 2.18-17.65 11.99-30.84q0.86-1.18 1.85-2.26 0.99-1.08 2.09-2.04 1.11-0.96 2.32-1.79 1.21-0.82 2.5-1.51l99.44 99.44 17.96 17.96 16.18 16.19 11.5 11.49 16.18-39.16-118.6-118.6c1.37-15.37 11.91-18.76 24.84-22.9 4.88-1.56 9.92-3.17 14.24-5.58 21.72-12.05 34.02-27.23 36.52-45.12 3.96-28.28-17.68-55.68-34.42-73.44l89.58-96.48 3.42 3.42 6.22-9.36 10.5 10.5-4.49 4.5 14.62 6.72 7.57-7.59-6.72-14.62-4.48 4.49-11.82-11.82 6.44-9.7 24.11 24.12 6.51-6.51-23.52-23.54zm-405.09 51.23l94.03 94.03-4.24-0.3 6.74 12.58c0.3 0.56 4.21 8.11 4.66 17.17l-112.34-112.35zm93.7 372.78m116.95-139.84q2.23 0.17 4.43 0.54 2.2 0.38 4.36 0.96 2.15 0.59 4.24 1.37 2.09 0.78 4.1 1.76l12.62 6.86-0.31-4.35 93.47 93.47-11.15 11.14-17.97-17.97z"/>
</svg>