<svg version="1.2" xmlns="http://www.w3.org/2000/svg" viewBox="0 0 800 800" width="800" height="800">
	<title>pause-svgrepo-com</title>
	<style>
		.s0 { fill: #ffffff }
	</style>
	<path class="s0" d="m36.36 691.9q0 30.02 20.78 50.8 20.78 20.78 51.95 21.93h145.45q30.02 0 51.95-21.93 21.94-21.94 20.78-50.8v-582.98q0-30.02-20.78-51.95-20.78-21.94-51.95-20.78h-145.45q-30.02 0-51.95 20.78-21.94 20.78-20.78 51.95zm436.37 0q0 30.01 21.93 50.79 21.94 20.78 50.8 21.94h145.45q30.02 0 51.95-21.94 21.94-21.93 20.78-50.79v-582.99q0-30.01-20.78-51.95-20.78-21.93-51.95-20.78h-145.45q-30.02 0-50.8 20.78-20.78 20.78-21.93 51.95z"/>
</svg>