<svg version="1.2" xmlns="http://www.w3.org/2000/svg" viewBox="0 0 54 85" width="54" height="85">
	<title>&lt;Compound Path&gt;</title>
	<style>
		.s0 { fill: #ffffff }
	</style>
	<path id="&lt;Compound Path&gt;" fill-rule="evenodd" class="s0" d="m49.07 57.39c-1.64 2.4-5.71 3.2-4.13 0.22 0.69-1.3 2.28-3.93 2.79-5.33 3.86-10.48-7.21-22.09-16.69-26.43-2.65-1.21-2.82-1.41-4.51-2.41v45.92c0.03 4.39-2.3 9.53-8.29 12.65-7.18 3.73-14.99 2.93-17.44-1.8-2.46-4.72 1.37-11.57 8.55-15.3 5.16-2.69 10.65-3.18 14.23-1.4l0.13-60.81q0-0.2 0-0.4c0-0.62-0.04-1.39 0.61-1.58 0.77-0.22 2.22-0.04 2.71 0.63q0-0.01 0-0.01 0.01 0.01 0.01 0.02 0.07 0.1 0.12 0.2 0.18 0.53 0.25 1.11c1.61 5.15 4.07 6.03 9.53 9.41 6.63 4.12 13.52 10.29 15.9 17.73 0 0 0.98 3.77-0.8 8.47q0.31 0.75 0.56 1.52c1.95 6.1 0.11 12.22-3.53 17.59zm0.27-23.95q-0.01-0.25-0.01-0.26c-1.51-9.93-8.14-14.07-18.05-17.32-1.95-0.64-2.94-0.64-3.78-1.06 2.6 2.78 5.94 5.25 9.19 7.27 4.63 2.87 9.39 6.76 12.65 11.37z"/>
</svg>