<?xml version="1.0" encoding="UTF-8"?>
<svg xmlns="http://www.w3.org/2000/svg" viewBox="0 0 24 24" width="24" height="24">
    <g>
        <path fill="#cccccc" d="M19.43 12.98c.04-.32.07-.66.07-1s-.03-.68-.07-1l2.11-1.65c.19-.15.24-.42.12-.64l-2-3.46c-.12-.21-.39-.3-.61-.22l-2.49 1c-.52-.4-1.08-.73-1.69-.98l-.38-2.65A.487.487 0 0014 2h-4c-.25 0-.46.18-.49.42l-.38 2.65c-.61.25-1.17.58-1.69.98l-2.49-1c-.23-.09-.49.01-.61.22l-2 3.46c-.12.21-.07.49.12.64l2.11 1.65c-.04.32-.07.66-.07 1s.03.68.07 1l-2.11 1.65a.495.495 0 00-.12.64l2 3.46c.12.21.39.3.61.22l2.49-1c.52.4 1.08.73 1.69.98l.38 2.65c.03.24.24.42.49.42h4c.25 0 .46-.18.49-.42l.38-2.65c.61-.25 1.17-.58 1.69-.98l2.49 1c.23.09.49-.01.61-.22l2-3.46a.495.495 0 00-.12-.64l-2.11-1.65zM12 15.5c-1.93 0-3.5-1.57-3.5-3.5s1.57-3.5 3.5-3.5 3.5 1.57 3.5 3.5-1.57 3.5-3.5 3.5z"/>
    </g>
</svg>
